<svg width="848" height="484" viewBox="0 0 848 484" fill="none" xmlns="http://www.w3.org/2000/svg">
<path d="M501.074 278H131.926C128.499 277.995 125.213 276.202 122.79 273.015C120.367 269.828 119.004 265.507 119 261V26C119.004 21.4929 120.367 17.1718 122.79 13.9848C125.213 10.7978 128.499 9.00507 131.926 9H501.074C504.501 9.00507 507.787 10.7978 510.21 13.9848C512.633 17.1718 513.996 21.4929 514 26V261C513.996 265.507 512.633 269.828 510.21 273.015C507.787 276.202 504.501 277.995 501.074 278ZM131.926 11C128.902 11.0045 126.003 12.5863 123.865 15.3984C121.727 18.2104 120.524 22.0231 120.521 26V261C120.524 264.977 121.727 268.79 123.865 271.602C126.003 274.414 128.902 275.996 131.926 276H501.074C504.098 275.996 506.997 274.414 509.135 271.602C511.273 268.79 512.476 264.977 512.479 261V26C512.476 22.0231 511.273 18.2104 509.135 15.3984C506.997 12.5863 504.098 11.0045 501.074 11H131.926Z" fill="#3F3D56"/>
<path d="M99.9977 58.5C105.328 58.5 109.649 54.4706 109.649 49.5C109.649 44.5294 105.328 40.5 99.9977 40.5C94.6675 40.5 90.3464 44.5294 90.3464 49.5C90.3464 54.4706 94.6675 58.5 99.9977 58.5Z" fill="#CCCCCC"/>
<path d="M99.9977 92.5C105.328 92.5 109.649 88.4706 109.649 83.5C109.649 78.5294 105.328 74.5 99.9977 74.5C94.6675 74.5 90.3464 78.5294 90.3464 83.5C90.3464 88.4706 94.6675 92.5 99.9977 92.5Z" fill="#CCCCCC"/>
<path d="M99.9977 126.5C105.328 126.5 109.649 122.471 109.649 117.5C109.649 112.529 105.328 108.5 99.9977 108.5C94.6675 108.5 90.3464 112.529 90.3464 117.5C90.3464 122.471 94.6675 126.5 99.9977 126.5Z" fill="#CCCCCC"/>
<path d="M99.9977 160.5C105.328 160.5 109.649 156.471 109.649 151.5C109.649 146.529 105.328 142.5 99.9977 142.5C94.6675 142.5 90.3464 146.529 90.3464 151.5C90.3464 156.471 94.6675 160.5 99.9977 160.5Z" fill="#CCCCCC"/>
<path d="M262.461 228.5C267.791 228.5 272.112 224.471 272.112 219.5C272.112 214.529 267.791 210.5 262.461 210.5C257.131 210.5 252.81 214.529 252.81 219.5C252.81 224.471 257.131 228.5 262.461 228.5Z" fill="#CCCCCC"/>
<path d="M192.757 228.5C198.087 228.5 202.408 224.471 202.408 219.5C202.408 214.529 198.087 210.5 192.757 210.5C187.427 210.5 183.106 214.529 183.106 219.5C183.106 224.471 187.427 228.5 192.757 228.5Z" fill="#CCCCCC"/>
<path d="M406.157 228.5C411.488 228.5 415.809 224.471 415.809 219.5C415.809 214.529 411.488 210.5 406.157 210.5C400.827 210.5 396.506 214.529 396.506 219.5C396.506 224.471 400.827 228.5 406.157 228.5Z" fill="#CCCCCC"/>
<path d="M333.237 228.5C338.567 228.5 342.888 224.471 342.888 219.5C342.888 214.529 338.567 210.5 333.237 210.5C327.906 210.5 323.585 214.529 323.585 219.5C323.585 224.471 327.906 228.5 333.237 228.5Z" fill="#CCCCCC"/>
<path d="M465.673 50.5H148.254C147.97 50.5 147.697 50.3946 147.496 50.2071C147.295 50.0196 147.182 49.7652 147.182 49.5C147.182 49.2348 147.295 48.9804 147.496 48.7929C147.697 48.6054 147.97 48.5 148.254 48.5H465.673C465.958 48.5 466.231 48.6054 466.432 48.7929C466.633 48.9804 466.746 49.2348 466.746 49.5C466.746 49.7652 466.633 50.0196 466.432 50.2071C466.231 50.3946 465.958 50.5 465.673 50.5Z" fill="#CCCCCC"/>
<path d="M465.673 84.5H148.254C147.97 84.5 147.697 84.3946 147.496 84.2071C147.295 84.0196 147.182 83.7652 147.182 83.5C147.182 83.2348 147.295 82.9804 147.496 82.7929C147.697 82.6054 147.97 82.5 148.254 82.5H465.673C465.958 82.5 466.231 82.6054 466.432 82.7929C466.633 82.9804 466.746 83.2348 466.746 83.5C466.746 83.7652 466.633 84.0196 466.432 84.2071C466.231 84.3946 465.958 84.5 465.673 84.5Z" fill="#CCCCCC"/>
<path d="M465.673 118.5H148.254C147.97 118.5 147.697 118.395 147.496 118.207C147.295 118.02 147.182 117.765 147.182 117.5C147.182 117.235 147.295 116.98 147.496 116.793C147.697 116.605 147.97 116.5 148.254 116.5H465.673C465.958 116.5 466.231 116.605 466.432 116.793C466.633 116.98 466.746 117.235 466.746 117.5C466.746 117.765 466.633 118.02 466.432 118.207C466.231 118.395 465.958 118.5 465.673 118.5Z" fill="#CCCCCC"/>
<path d="M465.673 152.5H148.254C147.97 152.5 147.697 152.395 147.496 152.207C147.295 152.02 147.182 151.765 147.182 151.5C147.182 151.235 147.295 150.98 147.496 150.793C147.697 150.605 147.97 150.5 148.254 150.5H465.673C465.958 150.5 466.231 150.605 466.432 150.793C466.633 150.98 466.746 151.235 466.746 151.5C466.746 151.765 466.633 152.02 466.432 152.207C466.231 152.395 465.958 152.5 465.673 152.5Z" fill="#CCCCCC"/>
<path d="M208.307 186.5H177.208C175.786 186.498 174.424 185.971 173.418 185.034C172.413 184.096 171.848 182.826 171.846 181.5V154.5C171.848 153.174 172.413 151.904 173.418 150.966C174.424 150.029 175.786 149.502 177.208 149.5H208.307C209.728 149.502 211.091 150.029 212.096 150.966C213.101 151.904 213.667 153.174 213.668 154.5V181.5C213.667 182.826 213.101 184.096 212.096 185.034C211.091 185.971 209.728 186.498 208.307 186.5Z" fill="#5F2EEA"/>
<path d="M278.01 186.5H246.911C245.49 186.498 244.127 185.971 243.122 185.034C242.117 184.096 241.551 182.826 241.55 181.5V120.5C241.551 119.174 242.117 117.904 243.122 116.966C244.127 116.029 245.49 115.502 246.911 115.5H278.01C279.431 115.502 280.794 116.029 281.799 116.966C282.805 117.904 283.37 119.174 283.372 120.5V181.5C283.37 182.826 282.805 184.096 281.799 185.034C280.794 185.971 279.431 186.498 278.01 186.5Z" fill="#5F2EEA"/>
<path d="M348.786 186.5H317.687C316.266 186.498 314.903 185.971 313.898 185.034C312.893 184.096 312.327 182.826 312.326 181.5V86.5C312.327 85.1744 312.893 83.9035 313.898 82.9662C314.903 82.0288 316.266 81.5015 317.687 81.5H348.786C350.208 81.5015 351.57 82.0288 352.576 82.9662C353.581 83.9035 354.146 85.1744 354.148 86.5V181.5C354.146 182.826 353.581 184.096 352.576 185.034C351.57 185.971 350.208 186.498 348.786 186.5Z" fill="#5F2EEA"/>
<path d="M421.706 186.5H390.608C389.186 186.498 387.824 185.971 386.818 185.034C385.813 184.096 385.248 182.826 385.246 181.5V53.5C385.248 52.1744 385.813 50.9035 386.818 49.9662C387.824 49.0288 389.186 48.5015 390.608 48.5H421.706C423.128 48.5015 424.491 49.0288 425.496 49.9662C426.501 50.9035 427.067 52.1744 427.068 53.5V181.5C427.067 182.826 426.501 184.096 425.496 185.034C424.491 185.971 423.128 186.498 421.706 186.5Z" fill="#5F2EEA"/>
<path d="M711.462 478.344C701.819 470.746 695.961 458.742 697.497 447.056C699.034 435.371 708.548 424.628 720.889 422.147C733.231 419.665 747.299 426.534 751.047 437.776C753.11 416.102 755.488 393.519 767.845 375.061C779.034 358.348 798.415 346.389 819.418 344.25C840.422 342.11 862.536 350.191 875.635 365.65C888.735 381.109 891.942 403.584 882.767 421.333C876.009 434.407 863.558 444.138 850.512 452.054C808.355 477.418 757.794 487.733 708.132 481.1L711.462 478.344Z" fill="#F2F2F2"/>
<path d="M854.865 350.639C837.534 363.802 821.635 378.525 807.398 394.593C785.116 419.654 767.086 447.751 753.934 477.907C752.972 480.107 756.802 481.065 757.754 478.889C779.272 429.88 813.623 386.684 857.666 353.251C859.644 351.749 856.826 349.149 854.865 350.639Z" fill="white"/>
<path d="M609.756 203.058C608.537 203.055 607.321 202.941 606.125 202.718H606.125C605.906 202.678 605.688 202.634 605.469 202.587L342.851 145.567C339.999 144.948 338.104 143.274 338.443 141.674C338.587 141.203 338.867 140.778 339.253 140.446C339.638 140.114 340.115 139.888 340.63 139.792C341.898 139.466 343.232 139.439 344.514 139.711L608.763 191.173C614.713 192.332 618.844 195.737 618.167 198.925C617.812 200.593 616.237 201.887 613.73 202.567C612.436 202.904 611.099 203.069 609.756 203.058Z" fill="#3F3D56"/>
<path d="M554.124 195.169C555.483 195.914 557.001 196.372 558.57 196.511C560.14 196.649 561.723 196.466 563.208 195.972C564.693 195.479 566.044 194.688 567.165 193.655C568.287 192.622 569.152 191.372 569.7 189.994L608.012 190.739L597.398 175.026L562.644 176.728C560.099 176.023 557.366 176.214 554.962 177.263C552.558 178.312 550.65 180.146 549.6 182.42C548.55 184.693 548.43 187.246 549.264 189.596C550.098 191.946 551.827 193.929 554.124 195.169V195.169Z" fill="#FFB8B8"/>
<path d="M570.765 189.462L570.566 178.511C570.551 177.381 570.991 176.286 571.798 175.443C572.605 174.6 573.722 174.069 574.928 173.955L643.774 167.76L701.135 150.222C702.867 149.692 704.694 149.489 706.51 149.624C708.326 149.759 710.096 150.229 711.715 151.007C713.335 151.786 714.772 152.856 715.944 154.157C717.116 155.458 717.999 156.964 718.541 158.586C719.084 160.208 719.275 161.914 719.104 163.606C718.933 165.297 718.403 166.94 717.545 168.439C716.687 169.938 715.518 171.263 714.106 172.336C712.694 173.41 711.068 174.212 709.32 174.694L645.83 192.224L575.711 193.885C574.651 193.909 573.613 193.607 572.754 193.026C571.896 192.446 571.267 191.618 570.962 190.671C570.838 190.278 570.772 189.871 570.765 189.462Z" fill="#3F3D56"/>
<path d="M672.648 471.782L659.501 471.781L653.247 424.493L672.65 424.494L672.648 471.782Z" fill="#FFB8B8"/>
<path d="M676.001 483.666L633.61 483.664V483.164C633.61 481.144 634.037 479.143 634.866 477.276C635.695 475.409 636.91 473.713 638.443 472.284C639.975 470.856 641.794 469.722 643.796 468.949C645.797 468.176 647.943 467.778 650.11 467.778H650.111L676.002 467.779L676.001 483.666Z" fill="#2F2E41"/>
<path d="M711.253 471.782L698.106 471.781L691.852 424.493L711.255 424.494L711.253 471.782Z" fill="#FFB8B8"/>
<path d="M714.606 483.666L672.215 483.664V483.164C672.215 481.144 672.642 479.143 673.471 477.276C674.3 475.409 675.515 473.713 677.048 472.284C678.58 470.856 680.399 469.722 682.401 468.949C684.402 468.176 686.548 467.778 688.715 467.778H688.716L714.607 467.779L714.606 483.666Z" fill="#2F2E41"/>
<path d="M720.077 280.674L716.937 454.368C716.927 454.918 716.796 455.46 716.551 455.961C716.306 456.461 715.953 456.909 715.514 457.277C715.075 457.644 714.56 457.923 714 458.097C713.44 458.27 712.848 458.334 712.26 458.284L696.876 456.98C695.867 456.894 694.923 456.478 694.211 455.806C693.499 455.133 693.066 454.247 692.987 453.305L683.981 344.96C683.96 344.706 683.835 344.468 683.632 344.297C683.43 344.125 683.164 344.033 682.89 344.038C682.617 344.043 682.356 344.145 682.16 344.324C681.965 344.503 681.85 344.745 681.84 345L677.338 455.825C677.296 456.859 676.826 457.838 676.027 458.555C675.228 459.273 674.162 459.674 673.052 459.674H656.553C655.461 459.674 654.409 459.285 653.614 458.587C652.818 457.889 652.338 456.935 652.272 455.918L640.722 279.674L709.353 263.674L720.077 280.674Z" fill="#2F2E41"/>
<path d="M670.296 117.578C684.842 117.578 696.634 106.581 696.634 93.0165C696.634 79.4518 684.842 68.4554 670.296 68.4554C655.75 68.4554 643.958 79.4518 643.958 93.0165C643.958 106.581 655.75 117.578 670.296 117.578Z" fill="#FFB8B8"/>
<path d="M638.371 285.841C637.915 285.43 637.551 284.939 637.3 284.395C637.048 283.852 636.915 283.268 636.908 282.676L635.132 164.234C635.025 158.208 636.968 152.307 640.684 147.376C644.399 142.446 649.694 138.74 655.809 136.792C658.276 126.353 671.409 125.045 679.065 125.201C680.976 125.24 682.849 125.707 684.525 126.564C686.201 127.421 687.631 128.642 688.693 130.124L694.181 137.801L706.277 144.413C711.876 147.46 716.291 152.087 718.888 157.625C721.484 163.164 722.126 169.328 720.722 175.23L718.86 183.129C712.302 211.088 712.926 240.098 720.681 267.789L724.428 281.113C724.623 281.807 724.638 282.535 724.47 283.235C724.303 283.935 723.958 284.588 723.465 285.139C722.972 285.689 722.345 286.122 721.636 286.401C720.927 286.68 720.157 286.796 719.39 286.741L715.038 286.429C713.908 286.349 712.845 285.9 712.034 285.162C711.224 284.423 710.718 283.442 710.606 282.391L709.886 275.674C709.873 275.551 709.811 275.436 709.712 275.353C709.614 275.27 709.486 275.224 709.353 275.224C709.22 275.224 709.091 275.27 708.993 275.353C708.894 275.436 708.832 275.551 708.819 275.674L708.122 282.177C708.004 283.275 707.457 284.295 706.586 285.042C705.714 285.79 704.578 286.212 703.394 286.229L641.808 287.112C641.782 287.112 641.757 287.113 641.731 287.113C640.476 287.116 639.27 286.659 638.371 285.841Z" fill="#3F3D56"/>
<path d="M672.356 107.174C672.464 110.646 675.049 112.655 678.223 114.473C681.396 116.292 685.106 117.08 688.74 117.841C689.228 118.083 689.775 118.203 690.328 118.19C690.88 118.178 691.42 118.033 691.895 117.769C692.369 117.505 692.763 117.132 693.038 116.684C693.313 116.237 693.46 115.732 693.464 115.216L696.798 103.393C697.977 99.6163 698.835 95.7587 699.364 91.8561C700.167 84.347 698.258 76.2691 692.638 70.8398C687.017 65.4105 677.27 63.4818 670.535 67.665C662.542 58.1452 626.007 79.178 635.019 85.7978C636.622 86.9755 639.073 85.4853 641.108 85.3409C643.143 85.1964 645.424 85.5303 646.717 87.0031C648.406 88.9273 647.67 91.7936 648.366 94.194C648.654 95.0386 649.118 95.8216 649.732 96.498C650.346 97.1745 651.098 97.7308 651.944 98.135C652.789 98.5393 653.713 98.7834 654.66 98.8533C655.607 98.9232 656.56 98.8175 657.464 98.5423C659.146 97.7691 660.729 96.8202 662.182 95.7137C663.743 94.7441 665.715 94.0277 667.473 94.6392C669.789 95.4453 670.612 98.0896 670.821 100.387C671.174 102.678 671.687 104.945 672.356 107.174Z" fill="#2F2E41"/>
<path d="M867.467 484H458.897C458.613 484 458.34 483.895 458.139 483.707C457.938 483.52 457.825 483.265 457.825 483C457.825 482.735 457.938 482.48 458.139 482.293C458.34 482.105 458.613 482 458.897 482H867.467C867.752 482 868.025 482.105 868.226 482.293C868.427 482.48 868.54 482.735 868.54 483C868.54 483.265 868.427 483.52 868.226 483.707C868.025 483.895 867.752 484 867.467 484Z" fill="#3F3D56"/>
<path opacity="0.2" d="M666.205 173L661.916 222L639.396 273L672.639 223L666.205 173Z" fill="black"/>
<path d="M634.13 291.992C635.359 291.072 636.357 289.911 637.054 288.592C637.75 287.273 638.127 285.828 638.16 284.358C638.192 282.888 637.879 281.43 637.242 280.085C636.604 278.741 635.658 277.543 634.471 276.576L648.817 243.44L629.298 247.116L618.667 278.019C617.057 279.987 616.278 282.437 616.476 284.905C616.674 287.373 617.837 289.688 619.743 291.41C621.649 293.133 624.166 294.143 626.818 294.251C629.47 294.358 632.071 293.554 634.13 291.992V291.992Z" fill="#FFB8B8"/>
<path d="M633.086 277.378L622.036 273.665C620.898 273.276 619.957 272.505 619.398 271.501C618.839 270.498 618.704 269.337 619.017 268.245L637.245 206.026L640.024 149.793C640.107 148.096 640.552 146.431 641.332 144.895C642.112 143.36 643.212 141.984 644.567 140.848C645.922 139.713 647.506 138.839 649.226 138.279C650.946 137.72 652.769 137.484 654.587 137.587C656.406 137.69 658.185 138.129 659.82 138.878C661.455 139.628 662.914 140.673 664.112 141.953C665.31 143.233 666.224 144.723 666.799 146.335C667.374 147.947 667.6 149.65 667.463 151.344L662.5 212.918L639.275 274.636C638.923 275.568 638.252 276.367 637.365 276.909C636.479 277.451 635.425 277.706 634.368 277.635C633.93 277.604 633.499 277.518 633.086 277.378Z" fill="#3F3D56"/>
<path d="M465.673 186.5H148.254C147.97 186.5 147.697 186.395 147.496 186.207C147.295 186.02 147.182 185.765 147.182 185.5C147.182 185.235 147.295 184.98 147.496 184.793C147.697 184.605 147.97 184.5 148.254 184.5H465.673C465.958 184.5 466.231 184.605 466.432 184.793C466.633 184.98 466.746 185.235 466.746 185.5C466.746 185.765 466.633 186.02 466.432 186.207C466.231 186.395 465.958 186.5 465.673 186.5Z" fill="#3F3D56"/>
</svg>
